<?xml version="1.0" encoding="utf-8"?>
<!-- Generator: Adobe Illustrator 24.1.2, SVG Export Plug-In . SVG Version: 6.00 Build 0)  -->
<svg version="1.1" id="Layer_1" xmlns="http://www.w3.org/2000/svg" xmlns:xlink="http://www.w3.org/1999/xlink" x="0px" y="0px"
	 viewBox="0 0 32 32" style="enable-background:new 0 0 32 32;" xml:space="preserve">
<style type="text/css">
	.st0{fill:#FFFFFF;}
</style>
<path class="st0" d="M28,7.7h-3.7v-3c0-2-1.6-3.7-3.7-3.7h-16C2.6,1,1,2.6,1,4.7v16c0,2,1.6,3.7,3.7,3.7h3V28c0,1.6,1.3,3,3,3H28
	c1.7,0,3-1.3,3-3V10.6C31,9,29.6,7.7,28,7.7z M4.7,22.3c-0.9,0-1.7-0.7-1.7-1.7v-16C3,3.8,3.7,3,4.6,3c0,0,0,0,0,0h16
	c0.9,0,1.7,0.7,1.7,1.7v3H10.6c-1.6,0-3,1.3-3,3v11.7H4.7z M29,28c0,0.6-0.4,1-1,1l0,0H10.6c-0.6,0-1-0.4-1-1l0,0V10.6
	c0-0.6,0.4-1,1-1c0,0,0,0,0,0H28c0.6,0,1,0.4,1,1c0,0,0,0,0,0L29,28z"/>
</svg>
